<svg version="1" xmlns="http://www.w3.org/2000/svg" width="682.667" height="682.667" viewBox="0 0 512.000000 512.000000"><path d="M312.5 47.6c-3.8.8-9.7 2.8-13.1 4.3-6 2.8-6.1 2.8-9.5 1.1-11.1-5.7-37.9-7.4-50-3.2-9 3.1-13.4 6.1-28 18.8-27.4 24.1-47.1 39.1-69.4 52.9-12.6 7.9-22.5 12.6-34.4 16.6-14.9 5.1-20.7 11.4-23.1 25.3-1.6 8.8-.2 16.9 4.6 26.4 6.2 12.1 20.3 25.7 34.2 32.6 5.9 3 6 2.4-.5 9.8-3.7 4.3-9.3 14.9-11.6 22.3-.9 2.7-2.8 10.6-4.2 17.5-3.2 15.6-5.1 18.7-12.7 20.5-4.1 1-8.8-3.9-8.8-9.2 0-5.3 4.5-13.9 8.6-16.6 6.2-4 3.5-4.9-5.4-1.8l-5.2 1.8.6-2.1c.3-1.2 1.5-3.6 2.6-5.4 1.1-1.8 1.8-3.5 1.5-3.8-2-2-13.7 9-16.3 15.3-1.8 4.2-2 13.4-.5 19.1 1.7 6.1 6.9 12.3 12.6 15.2 4 2 6.5 2.5 12.5 2.4 12.3 0 20.4-5.4 26.6-17.5 3.8-7.7 5.2-11.9 8.5-26.9 3-13.7 6.3-22.2 9.9-25.5 2-1.8 2-1.7 2 2.1 0 5.5 1.5 10.2 5 15.7 3.7 5.9 8.2 8.7 13.8 8.7 5 0 8.2-1.5 21.7-10.4 5.5-3.7 15.4-9.4 22-12.8 11.1-5.8 12.5-6.2 18.5-6.2 8.3 0 15.5 3.1 20.9 8.9 7 7.6 9.3 13.7 9.2 24.6 0 15.2-7.2 31.6-24.2 55.4-12.4 17.3-16.7 24.1-22.3 35.2-3.1 6.2-4 7.2-6.8 7.8-5.1 1.1-14.8 6.3-20.6 11-20.5 16.8-24.4 38.7-12.1 68.6 2.1 5.2 3.9 9.8 3.9 10.2 0 .3-2.5 4.5-5.6 9.2-7.8 12-14 24.4-17.4 35.3-1.7 5.1-3 9.7-3 10.2 0 .7 50.8 1 146.9 1h146.9l.8-7.8c1.2-11.9.8-32.7-1-43.4-7.8-47.6-40.6-85.9-87.9-102.7-1.6-.6-1-2.3 5.6-15.6 4.1-8.3 10.7-20.4 14.6-26.9 16.5-27.3 24.2-46.3 26.1-64.9 1.1-10.2-.5-36.2-3-51.2l-1.9-11 4.3-5.5c13.8-17.6 16.3-39.1 7.4-62-3.6-9.2-8.3-16.9-26.2-42.5-10.6-15.2-16.4-21.4-23.4-24.9-12.5-6.3-30.8-8.9-43.7-6zm10.3 60.4c3.4 3.2 3 8.9-.8 12.9-4.8 4.9-11.8 3.7-12.1-2.2-.3-5.3.4-7.4 3.2-10 3.5-3.2 6.7-3.5 9.7-.7zm3.7 16.1c-.4.5-1.3.9-2.2.9-1.3 0-1.3-.3-.3-1.5 1.3-1.5 3.5-1.1 2.5.6zm25 8.4c-1.3 8.8-14.5 17.8-14.5 9.9 0-1.7 1.1-3.1 3.8-4.8 5.5-3.5 7.9-6.6 8.8-11.1l.7-4 1 2.8c.5 1.6.6 4.8.2 7.2zm-79.4 41.6c12.3 4.8 24.4 13.8 32.4 24.1 5.3 6.8 13.6 20.9 15 25.5l.6 2.2-35.3-.2c-38-.2-45 .4-59 4.9-12.5 4-26 10.8-42 21.1-13.2 8.4-15.8 9.7-20.3 10.1-4.7.4-5.5.1-8.8-2.7-5.2-4.6-8.7-12.2-8.7-19.1 0-6.7 2-9 11.5-13.8 11.9-5.8 15.5-6.6 34-6.6 18.7-.1 24.7-1.3 36.3-6.8 14.1-6.7 20.6-16.3 23.3-34.3 1-6.4 1.4-7.4 3.3-7.7 3.4-.5 12.2 1.1 17.7 3.3zm48.3 73.1c0 17-.4 20.9-2.8 32.3-5.1 24.3-9.2 34.5-27.9 68.3-10.9 20-15.1 29.7-18.2 42.6-3 12.1-4.9 32.7-4 41.5 1.7 15.6 1.9 14.7-3.3 17.7-5.3 3.1-20.3 14.3-27.5 20.6-4.5 3.9-4.8 4.1-7.4 2.7-3.9-2.1-18.9-16.6-18-17.5 1.2-1.3 15-.7 19.9.9 2.7.8 4.6 1.2 4.3.7-1.4-2.3-15.7-4.2-23-3-2.8.5-3.3 0-8.2-7.4-7.5-11.3-11.7-21.7-11.7-29.1-.1-5.9-.1-5.9 3.8-8.1 12.3-7 33.1-5 47.2 4.5 2.9 2 4.2 2.5 3.1 1.3-2.7-3-12.5-7.9-19.2-9.7-10.8-2.8-25.2-1.3-32.2 3.2-1.3.8-2.3 1.1-2.3.5 0-3.3 9.7-32.8 13.4-40.6 4.2-9 4.4-9.2 9.7-11.5 3-1.3 8.4-2.5 12-2.8 8.5-.7 15.3 1.4 26.3 7.9 4.5 2.6 6.8 3.6 5.1 2.2-1.6-1.3-6.8-4.4-11.4-6.7-8.3-4.1-8.7-4.2-18.5-4.1-7.1 0-11.2.5-13.9 1.7l-3.8 1.6 3.2-5.9c1.8-3.2 7.1-11.2 11.7-17.7s10.2-14.6 12.5-18c5.5-8.2 9.7-9.8 23.4-9.1 8.1.5 10.3 1 16.3 4 3.8 1.8 6.5 2.9 5.9 2.2-.5-.6-3.7-2.4-7.2-4-5.2-2.3-7.9-2.9-16.4-3.2-5.6-.2-11.5 0-13.2.6l-2.9 1 4.4-9.2c5.6-11.9 7.4-19.1 7.4-29.8V259l2.7 1.1c4.3 1.6 24.1 2.3 32 1 7-1.1 18.9-4.9 18-5.7-.2-.2-2.9.5-6 1.5-8.8 3-20.1 4.4-30.5 3.7-13-.9-15.3-2-19.3-9.6-5.2-9.9-16.2-18-24.1-18-6.6 0 6.3-3.7 18.7-5.4 1.7-.2 18.5-.3 37.5-.1l34.5.4-.1 19.3z"/><path d="M245.8 311.7c.7.3 1.6.2 1.9-.1.4-.3-.2-.6-1.3-.5-1.1 0-1.4.3-.6.6z"/></svg>