<?xml version="1.0" standalone="no"?>
<!DOCTYPE svg PUBLIC "-//W3C//DTD SVG 20010904//EN"
 "http://www.w3.org/TR/2001/REC-SVG-20010904/DTD/svg10.dtd">
<svg version="1.0" xmlns="http://www.w3.org/2000/svg"
 width="398.000000pt" height="398.000000pt" viewBox="0 0 398.000000 398.000000"
 preserveAspectRatio="xMidYMid meet">
<metadata>
Created by potrace 1.14, written by Peter Selinger 2001-2017
</metadata>
<g transform="translate(0.000000,398.000000) scale(0.100000,-0.100000)"
fill="#000000" stroke="none">
<path d="M482 3292 c-71 -82 -183 -243 -176 -253 3 -5 15 -9 28 -9 12 0 80
-11 151 -25 176 -34 165 -36 166 33 1 99 16 107 24 13 9 -92 25 -121 70 -121
32 0 75 -22 141 -72 33 -25 61 -38 82 -38 17 0 34 -4 37 -10 4 -6 -6 -10 -22
-10 -28 0 -28 0 18 -45 26 -24 60 -47 75 -50 16 -4 34 -8 41 -10 25 -8 67
-110 94 -225 l8 -35 -42 46 c-23 26 -59 67 -80 93 -21 25 -57 57 -80 70 -48
28 -178 63 -268 73 l-61 6 3 -66 c2 -36 0 -69 -4 -73 -4 -4 -8 -30 -8 -58 -1
-28 -5 -64 -9 -81 -6 -25 -8 -21 -9 25 -2 81 -9 99 -47 115 -47 19 -45 39 2
30 l37 -6 -7 57 c-4 32 -8 60 -11 62 -22 23 -418 43 -466 24 -21 -9 -33 -27
-57 -94 -16 -46 -35 -109 -42 -141 -13 -57 -13 -58 16 -88 84 -89 263 -191
394 -226 97 -26 252 -23 360 7 94 26 207 70 315 121 57 28 74 32 93 24 21 -9
23 -15 18 -50 l-5 -40 24 53 c14 31 30 52 40 52 22 0 16 -19 -59 -175 -44 -91
-96 -229 -171 -458 -91 -275 -112 -331 -133 -345 -91 -61 -145 -158 -145 -261
0 -104 33 -151 105 -151 28 0 38 -8 67 -50 68 -101 212 -171 351 -173 41 0 91
5 110 11 19 6 85 18 145 26 151 20 249 44 287 70 18 11 45 46 61 76 25 47 28
64 25 116 -3 48 -10 70 -31 98 -16 20 -32 36 -37 36 -5 0 -6 -39 -3 -88 5 -77
3 -93 -16 -131 -15 -28 -33 -47 -56 -57 -30 -12 -40 -12 -97 7 -52 17 -78 20
-148 15 -310 -22 -357 -19 -467 38 -77 39 -104 74 -110 142 -6 73 2 101 150
539 94 276 164 519 202 702 3 14 17 26 39 33 24 8 38 20 44 40 9 24 18 30 54
35 51 8 124 -7 191 -37 42 -19 47 -25 47 -53 0 -38 6 -43 88 -78 80 -34 100
-34 112 -1 14 36 89 131 141 179 142 130 301 174 574 159 129 -7 135 -8 78
-15 -34 -4 -73 -14 -88 -21 -23 -13 -16 -14 69 -10 116 5 269 -12 395 -44 53
-13 98 -24 101 -23 15 1 -107 44 -185 65 -112 29 -84 30 66 4 142 -26 275 -61
403 -108 151 -56 224 -130 250 -254 5 -23 13 -28 58 -36 l53 -10 -52 -1 c-56
-1 -55 0 -68 -76 -4 -21 -13 -51 -21 -66 -12 -24 -12 -30 5 -50 l18 -23 64 28
c35 15 93 43 128 63 l63 35 -6 67 c-11 102 -36 245 -60 340 -21 80 -25 87 -60
107 -21 12 -75 34 -120 50 -77 26 -84 30 -108 74 -65 115 -296 209 -688 277
-199 34 -475 40 -551 10 -60 -23 -89 -55 -96 -107 -3 -23 -11 -43 -17 -45 -6
-1 -46 -10 -89 -20 -91 -20 -195 -82 -293 -176 l-61 -59 -62 30 c-76 38 -215
61 -293 49 -29 -5 -54 -5 -56 -1 -1 4 -19 40 -40 79 -64 125 -117 188 -211
252 -47 32 -120 83 -161 115 -41 31 -118 78 -170 105 -90 46 -260 111 -292
111 -8 0 -38 -26 -66 -58z m-83 -658 c27 -6 30 -10 25 -28 -12 -38 -7 -130 10
-171 38 -91 139 -158 241 -157 73 0 128 21 178 70 48 46 75 98 84 157 6 49 8
50 39 32 22 -12 154 -133 154 -140 0 -11 -214 -92 -298 -113 -113 -29 -265
-32 -357 -9 -135 34 -290 146 -340 244 -21 42 -22 49 -9 74 8 15 26 29 42 33
15 3 32 7 37 9 18 6 162 5 194 -1z"/>
<path d="M500 2971 c-53 -6 -52 -7 35 -12 50 -3 94 -2 100 3 5 4 -5 8 -22 8
-17 0 -37 1 -45 3 -7 2 -38 1 -68 -2z"/>
<path d="M2580 2285 c-107 -23 -207 -38 -283 -42 -101 -5 -117 -8 -115 -22 9
-50 155 -65 353 -36 291 42 601 -7 892 -140 45 -20 91 -35 104 -33 21 3 24 8
24 48 l0 45 -63 33 c-43 23 -85 36 -130 42 -37 4 -52 8 -33 9 50 2 30 16 -72
52 -136 47 -250 69 -387 74 -115 5 -138 2 -290 -30z"/>
<path d="M2267 2073 c-12 -12 -7 -21 16 -27 120 -34 130 -36 226 -26 216 22
223 32 33 48 -155 13 -265 15 -275 5z"/>
<path d="M440 2022 c1 -12 74 -59 115 -72 51 -17 154 -17 225 0 54 12 176 67
168 75 -2 2 -44 -3 -93 -12 -101 -17 -339 -14 -387 5 -16 7 -28 8 -28 4z"/>
<path d="M33 1845 c-7 -21 -2 -25 41 -32 27 -4 36 -2 36 9 0 35 -64 54 -77 23z"/>
<path d="M246 1818 c-23 -32 -20 -38 19 -38 27 0 35 4 35 18 0 18 -18 42 -31
42 -5 0 -15 -10 -23 -22z"/>
<path d="M2411 1748 c66 -64 172 -122 260 -143 82 -19 113 -19 180 1 l54 17
-100 17 c-119 21 -229 57 -345 113 -47 22 -89 43 -95 45 -5 2 15 -21 46 -50z"/>
<path d="M20 1756 c0 -22 4 -26 30 -26 18 0 33 6 37 15 7 20 5 21 -34 30 -31
6 -33 5 -33 -19z"/>
<path d="M170 1730 c0 -24 25 -27 34 -4 9 23 8 24 -14 24 -13 0 -20 -7 -20
-20z"/>
<path d="M46 1601 c-3 -5 -4 -15 -2 -23 2 -7 7 -26 11 -41 5 -24 8 -27 21 -16
21 17 15 83 -8 87 -9 2 -19 -1 -22 -7z"/>
<path d="M3030 1366 c-11 -14 -6 -16 40 -16 37 0 50 4 48 13 -7 19 -72 21 -88
3z"/>
<path d="M3030 1297 c23 -24 62 -30 85 -13 19 15 18 15 -22 16 -23 0 -50 3
-60 6 -16 6 -16 5 -3 -9z"/>
<path d="M3413 1303 c-7 -5 -15 -23 -19 -39 -9 -48 28 -85 94 -92 49 -4 52 -3
62 22 14 39 12 82 -4 95 -18 15 -117 25 -133 14z"/>
<path d="M3175 1270 c-10 -16 4 -47 24 -53 20 -5 51 9 51 23 0 28 -61 53 -75
30z"/>
<path d="M3672 1098 c-7 -7 -12 -19 -12 -29 0 -17 36 -69 49 -69 13 0 53 80
47 95 -7 18 -67 20 -84 3z"/>
<path d="M3320 1060 c-11 -11 -20 -26 -20 -34 0 -23 50 -56 84 -56 62 0 74 43
25 84 -37 31 -62 33 -89 6z"/>
<path d="M582 793 c-18 -2 -36 -11 -39 -20 -4 -10 -8 -11 -13 -4 -7 13 -82 -9
-87 -26 -6 -17 206 -233 235 -239 15 -3 99 -24 187 -46 386 -98 434 -106 945
-158 456 -47 521 -59 609 -118 36 -25 85 -79 94 -105 6 -19 347 109 347 131 0
13 -46 81 -79 116 -45 48 -133 112 -208 150 -140 70 -250 90 -753 136 -367 34
-442 44 -665 96 -358 84 -475 101 -573 87z"/>
<path d="M1048 234 c65 -39 244 -111 372 -150 159 -49 355 -62 663 -46 159 8
225 8 240 1 29 -16 124 6 132 30 8 25 -8 61 -38 90 -21 19 -32 22 -59 17 -117
-23 -194 -28 -448 -30 -382 -1 -581 20 -809 89 -104 31 -106 31 -53 -1z"/>
</g>
</svg>
